<svg xmlns="http://www.w3.org/2000/svg" width="1280" height="512" viewBox="0 0 1280 512" role="img" aria-label="Litos Companion — Read. Think. Make it yours."><title>Litos Companion — Read. Think. Make it yours.</title><path fill="#F7F6F2" d="M0 0h1280v512H0z"/><g transform="translate(82 64) scale(1)" fill="#242827"><path d="M8 28h8v56H8zM24 12h8v56h-8z"/><path fill="#397F7B" d="M44 64h36v8H44z"/><path fill="#397F7B" d="M72 40h8v8h-8z"/></g><g fill="#242827" transform="translate(88 294) scale(0.122 -0.122)"><path d="M39 617V664H344V617L256 607Q255 544 254.5 480.5Q254 417 254 353V292Q254 239 254.5 177.5Q255 116 256 53H458L486 192H556L546 0H39V47L123 56Q125 119 125.0 180.5Q125 242 125 300V353Q125 418 125.0 481.5Q125 545 123 608Z" transform="translate(0.000 0)"/><path d="M33 0V41L98 54Q99 91 99.0 134.5Q99 178 99 210V257Q99 298 98.5 325.5Q98 353 96 383L25 392V429L205 493L221 483L218 342V210Q218 178 218.0 134.5Q218 91 219 53L280 41V0ZM154 580Q123 580 101.0 600.0Q79 620 79 651Q79 683 101.0 703.0Q123 723 154 723Q186 723 207.5 703.0Q229 683 229 651Q229 620 207.5 600.0Q186 580 154 580Z" transform="translate(589.000 0)"/><path d="M211 -14Q152 -14 117.5 16.0Q83 46 83 112Q83 134 83.5 154.5Q84 175 84 204V419H10V470L92 480L129 617H209L205 479H326V419H204V123Q204 86 218.5 69.0Q233 52 257 52Q286 52 318 77L342 52Q323 21 290.5 3.5Q258 -14 211 -14Z" transform="translate(896.000 0)"/><path d="M278 -14Q211 -14 156.0 16.0Q101 46 69.0 102.5Q37 159 37 239Q37 319 70.5 376.0Q104 433 159.0 463.0Q214 493 278 493Q342 493 397.0 463.0Q452 433 485.5 376.5Q519 320 519 239Q519 159 486.5 102.0Q454 45 399.5 15.5Q345 -14 278 -14ZM278 34Q332 34 361.0 84.5Q390 135 390 238Q390 342 361.0 393.0Q332 444 278 444Q167 444 167 238Q167 34 278 34Z" transform="translate(1237.000 0)"/><path d="M202 -14Q157 -14 118.0 -3.5Q79 7 41 28L40 144H107L125 51Q161 36 203 36Q254 36 279.5 54.0Q305 72 305 104Q305 132 284.5 150.0Q264 168 216 183L166 200Q110 219 77.5 253.5Q45 288 45 341Q45 382 67.0 416.5Q89 451 131.5 472.0Q174 493 235 493Q278 493 313.5 482.5Q349 472 384 452L379 347H313L295 430Q268 443 233 443Q193 443 171.0 426.0Q149 409 149 380Q149 353 167.0 336.5Q185 320 237 303L276 291Q350 266 381.0 228.5Q412 191 412 140Q412 73 357.5 29.5Q303 -14 202 -14Z" transform="translate(1794.000 0)"/></g><g fill="#242827" transform="translate(91 351) scale(0.04 -0.04)"><path d="M386 -15Q285 -15 208.5 29.5Q132 74 89.5 153.0Q47 232 47 335Q47 411 72.5 475.0Q98 539 143.5 586.0Q189 633 250.5 659.0Q312 685 385 685Q426 685 477.0 675.5Q528 666 578 637L582 492H520L500 608Q473 623 447.5 629.0Q422 635 398 635Q331 635 276.0 600.5Q221 566 188.5 499.5Q156 433 156 335Q156 237 186.0 170.0Q216 103 269.5 69.0Q323 35 391 35Q420 35 450.5 41.5Q481 48 510 62L530 178H592L588 33Q542 8 490.5 -3.5Q439 -15 386 -15Z" transform="translate(0.000 0)"/><path d="M274 -13Q216 -13 163.5 14.5Q111 42 78.0 97.5Q45 153 45 235Q45 318 78.0 374.5Q111 431 163.5 459.5Q216 488 274 488Q332 488 384.5 459.5Q437 431 470.5 374.5Q504 318 504 235Q504 153 470.5 97.5Q437 42 384.5 14.5Q332 -13 274 -13ZM274 32Q339 32 374.0 83.5Q409 135 409 235Q409 336 374.0 389.0Q339 442 274 442Q209 442 174.5 389.0Q140 336 140 235Q140 135 174.5 83.5Q209 32 274 32Z" transform="translate(631.000 0)"/><path d="M40 0V36L114 50Q115 88 115.5 132.0Q116 176 116 210V258Q116 299 115.5 326.0Q115 353 113 383L34 392V427L174 488L189 478L197 397Q232 437 279.0 462.5Q326 488 372 488Q419 488 448.5 466.0Q478 444 491 394Q529 441 576.0 464.5Q623 488 672 488Q733 488 766.5 447.0Q800 406 800 313V210Q800 176 800.5 132.0Q801 88 802 50L872 36V0H640V36L714 50Q715 87 715.5 131.5Q716 176 716 210V297Q716 367 696.0 391.5Q676 416 632 416Q601 416 568.5 402.0Q536 388 498 353Q499 342 499.5 329.5Q500 317 500 303V210Q500 176 500.5 132.0Q501 88 502 50L572 36V0H340V36L414 50Q415 87 415.5 131.5Q416 176 416 210V295Q416 363 397.0 389.5Q378 416 334 416Q300 416 269.0 402.0Q238 388 201 356V210Q201 177 201.5 132.5Q202 88 203 50L272 36V0Z" transform="translate(1180.000 0)"/><path d="M35 -240V-204L115 -190Q116 -149 116.5 -108.5Q117 -68 117 -28V258Q117 299 116.5 326.0Q116 353 114 383L35 392V427L175 488L190 478L196 413Q267 488 347 488Q401 488 444.0 458.0Q487 428 512.5 372.5Q538 317 538 239Q538 162 511.0 105.5Q484 49 437.5 18.0Q391 -13 332 -13Q298 -13 264.5 1.0Q231 15 199 52V-27Q199 -67 199.5 -107.5Q200 -148 201 -189L292 -204V-240ZM323 431Q300 431 270.0 419.5Q240 408 202 376V95Q230 68 257.0 56.0Q284 44 312 44Q368 44 408.0 89.0Q448 134 448 231Q448 327 413.0 379.0Q378 431 323 431Z" transform="translate(2081.000 0)"/><path d="M416 -10Q380 -10 356.0 11.0Q332 32 326 67Q285 27 254.0 7.0Q223 -13 179 -13Q124 -13 84.5 18.5Q45 50 45 112Q45 141 57.5 167.0Q70 193 106.0 216.5Q142 240 211 260Q240 268 268.0 276.5Q296 285 324 293V321Q324 394 302.0 418.0Q280 442 230 442Q219 442 205.5 441.0Q192 440 176 436L157 371Q143 323 105 323Q63 323 58 364Q72 421 124.5 454.5Q177 488 253 488Q332 488 370.0 448.5Q408 409 408 314V101Q408 69 418.0 55.5Q428 42 444 42Q457 42 466.0 48.0Q475 54 483 64L503 42Q485 13 463.5 1.5Q442 -10 416 -10ZM134 126Q134 87 157.0 70.0Q180 53 214 53Q229 53 242.5 57.0Q256 61 275.0 72.5Q294 84 324 106V256Q301 249 278.5 241.5Q256 234 233 226Q188 212 167.0 194.5Q146 177 140.0 159.5Q134 142 134 126Z" transform="translate(2664.000 0)"/><path d="M40 0V36L114 50Q115 88 115.5 132.0Q116 176 116 210V258Q116 299 115.5 326.0Q115 353 113 383L34 392V427L174 488L189 478L197 398Q234 438 282.0 463.0Q330 488 376 488Q441 488 472.5 444.5Q504 401 504 303V210Q504 176 504.5 132.0Q505 88 506 50L576 36V0H344V36L418 50Q419 87 419.5 131.5Q420 176 420 210V295Q420 364 400.5 390.0Q381 416 337 416Q303 416 271.0 402.0Q239 388 201 356V210Q201 177 201.5 132.5Q202 88 203 50L272 36V0Z" transform="translate(3173.000 0)"/><path d="M35 0V36L109 50Q110 88 110.5 132.0Q111 176 111 210V257Q111 298 110.5 325.5Q110 353 108 383L29 392V427L184 488L199 478L196 342V210Q196 177 196.5 132.5Q197 88 198 50L267 36V0ZM148 589Q120 589 100.5 607.0Q81 625 81 653Q81 681 100.5 699.0Q120 717 148 717Q176 717 195.5 699.0Q215 681 215 653Q215 625 195.5 607.0Q176 589 148 589Z" transform="translate(3779.000 0)"/><path d="M274 -13Q216 -13 163.5 14.5Q111 42 78.0 97.5Q45 153 45 235Q45 318 78.0 374.5Q111 431 163.5 459.5Q216 488 274 488Q332 488 384.5 459.5Q437 431 470.5 374.5Q504 318 504 235Q504 153 470.5 97.5Q437 42 384.5 14.5Q332 -13 274 -13ZM274 32Q339 32 374.0 83.5Q409 135 409 235Q409 336 374.0 389.0Q339 442 274 442Q209 442 174.5 389.0Q140 336 140 235Q140 135 174.5 83.5Q209 32 274 32Z" transform="translate(4077.000 0)"/><path d="M40 0V36L114 50Q115 88 115.5 132.0Q116 176 116 210V258Q116 299 115.5 326.0Q115 353 113 383L34 392V427L174 488L189 478L197 398Q234 438 282.0 463.0Q330 488 376 488Q441 488 472.5 444.5Q504 401 504 303V210Q504 176 504.5 132.0Q505 88 506 50L576 36V0H344V36L418 50Q419 87 419.5 131.5Q420 176 420 210V295Q420 364 400.5 390.0Q381 416 337 416Q303 416 271.0 402.0Q239 388 201 356V210Q201 177 201.5 132.5Q202 88 203 50L272 36V0Z" transform="translate(4626.000 0)"/></g><path stroke="#397F7B" stroke-width="2" d="M770 80v340"/><g fill="#242827" transform="translate(821 185) scale(0.04 -0.04)"><path d="M321 624H235Q234 558 233.5 492.0Q233 426 233 355H310Q391 355 429.5 394.5Q468 434 468 494Q468 557 433.0 590.5Q398 624 321 624ZM44 629V670H324Q439 670 503.0 624.0Q567 578 567 495Q567 437 525.0 388.5Q483 340 398 325Q444 316 472.5 286.5Q501 257 517 198L560 50L637 41V0Q622 -4 603.5 -7.0Q585 -10 562 -10Q515 -10 491.5 4.0Q468 18 459 54L419 214Q410 255 393.0 275.5Q376 296 349.5 303.0Q323 310 282 310H233Q233 238 233.5 175.0Q234 112 235 52L327 41V0H44V41L136 52Q138 115 138.0 180.0Q138 245 138 310V359Q138 424 138.0 489.0Q138 554 136 618Z" transform="translate(0.000 0)"/><path d="M274 442Q243 442 213.5 426.0Q184 410 162.5 375.0Q141 340 135 282H313Q354 282 366.0 297.0Q378 312 378 334Q378 386 350.0 414.0Q322 442 274 442ZM277 -13Q171 -13 108.0 52.0Q45 117 45 232Q45 309 76.0 366.5Q107 424 159.5 456.0Q212 488 274 488Q327 488 369.0 465.0Q411 442 436.0 399.5Q461 357 461 296Q461 279 459.0 264.5Q457 250 454 240H133Q135 148 179.0 100.0Q223 52 300 52Q347 52 382.5 67.5Q418 83 448 117L469 100Q438 48 396.0 17.5Q354 -13 277 -13Z" transform="translate(651.000 0)"/><path d="M416 -10Q380 -10 356.0 11.0Q332 32 326 67Q285 27 254.0 7.0Q223 -13 179 -13Q124 -13 84.5 18.5Q45 50 45 112Q45 141 57.5 167.0Q70 193 106.0 216.5Q142 240 211 260Q240 268 268.0 276.5Q296 285 324 293V321Q324 394 302.0 418.0Q280 442 230 442Q219 442 205.5 441.0Q192 440 176 436L157 371Q143 323 105 323Q63 323 58 364Q72 421 124.5 454.5Q177 488 253 488Q332 488 370.0 448.5Q408 409 408 314V101Q408 69 418.0 55.5Q428 42 444 42Q457 42 466.0 48.0Q475 54 483 64L503 42Q485 13 463.5 1.5Q442 -10 416 -10ZM134 126Q134 87 157.0 70.0Q180 53 214 53Q229 53 242.5 57.0Q256 61 275.0 72.5Q294 84 324 106V256Q301 249 278.5 241.5Q256 234 233 226Q188 212 167.0 194.5Q146 177 140.0 159.5Q134 142 134 126Z" transform="translate(1161.000 0)"/><path d="M135 235Q135 137 174.5 90.5Q214 44 274 44Q307 44 332.5 57.5Q358 71 386 102V379Q352 409 325.0 420.0Q298 431 273 431Q236 431 204.5 410.5Q173 390 154.0 346.5Q135 303 135 235ZM396 -10 389 59Q363 25 329.5 6.0Q296 -13 249 -13Q188 -13 142.0 18.0Q96 49 70.5 104.5Q45 160 45 233Q45 310 73.0 367.0Q101 424 149.0 456.0Q197 488 258 488Q293 488 325.5 474.0Q358 460 389 423V649L304 659V695L460 740L474 732L470 589V48L551 36V0Z" transform="translate(1670.000 0)"/><path d="M150 -13Q120 -13 99.5 8.0Q79 29 79 58Q79 88 99.5 109.0Q120 130 150 130Q180 130 200.5 109.0Q221 88 221 58Q221 29 200.5 8.0Q180 -13 150 -13Z" transform="translate(2237.000 0)"/></g><g fill="#242827" transform="translate(821 247) scale(0.04 -0.04)"><path d="M20 492 28 670H576L584 492H526L504 620H351Q350 556 349.5 490.5Q349 425 349 359V310Q349 246 349.5 181.5Q350 117 351 52L453 41V0H151V41L253 52Q255 116 255.0 180.5Q255 245 255 310V359Q255 424 255.0 489.5Q255 555 253 620H100L78 492Z" transform="translate(0.000 0)"/><path d="M30 0V36L105 50Q106 88 106.5 132.5Q107 177 107 210V649L25 659V695L178 740L192 732L188 589V396Q225 437 274.0 462.5Q323 488 371 488Q436 488 467.5 444.5Q499 401 499 303V210Q499 176 499.5 132.0Q500 88 501 50L571 36V0H339V36L412 49Q413 87 413.5 131.5Q414 176 414 210V295Q414 364 395.0 390.0Q376 416 332 416Q295 416 262.0 401.0Q229 386 191 351V210Q191 177 191.5 132.5Q192 88 193 50L262 36V0Z" transform="translate(604.000 0)"/><path d="M35 0V36L109 50Q110 88 110.5 132.0Q111 176 111 210V257Q111 298 110.5 325.5Q110 353 108 383L29 392V427L184 488L199 478L196 342V210Q196 177 196.5 132.5Q197 88 198 50L267 36V0ZM148 589Q120 589 100.5 607.0Q81 625 81 653Q81 681 100.5 699.0Q120 717 148 717Q176 717 195.5 699.0Q215 681 215 653Q215 625 195.5 607.0Q176 589 148 589Z" transform="translate(1205.000 0)"/><path d="M40 0V36L114 50Q115 88 115.5 132.0Q116 176 116 210V258Q116 299 115.5 326.0Q115 353 113 383L34 392V427L174 488L189 478L197 398Q234 438 282.0 463.0Q330 488 376 488Q441 488 472.5 444.5Q504 401 504 303V210Q504 176 504.5 132.0Q505 88 506 50L576 36V0H344V36L418 50Q419 87 419.5 131.5Q420 176 420 210V295Q420 364 400.5 390.0Q381 416 337 416Q303 416 271.0 402.0Q239 388 201 356V210Q201 177 201.5 132.5Q202 88 203 50L272 36V0Z" transform="translate(1503.000 0)"/><path d="M25 0V36L105 50Q106 90 106.5 130.5Q107 171 107 210V649L25 659V695L181 740L195 732L191 589V240L284 337L362 418L288 436V475H521V436L427 422L317 309L481 48L547 36V0H411L257 248L191 180Q191 148 191.5 115.0Q192 82 193 50L273 36V0Z" transform="translate(2109.000 0)"/><path d="M150 -13Q120 -13 99.5 8.0Q79 29 79 58Q79 88 99.5 109.0Q120 130 150 130Q180 130 200.5 109.0Q221 88 221 58Q221 29 200.5 8.0Q180 -13 150 -13Z" transform="translate(2656.000 0)"/></g><g fill="#242827" transform="translate(821 309) scale(0.04 -0.04)"><path d="M39 0V41L129 54V618L49 629V670H224L448 119L660 670H857V629L765 618Q764 554 763.5 489.0Q763 424 763 359V310Q763 246 763.5 181.5Q764 117 765 52L857 41V0H585V41L669 52Q671 115 671.0 180.0Q671 245 671 309V563L454 0H404L175 564L181 369V54L263 41V0Z" transform="translate(0.000 0)"/><path d="M416 -10Q380 -10 356.0 11.0Q332 32 326 67Q285 27 254.0 7.0Q223 -13 179 -13Q124 -13 84.5 18.5Q45 50 45 112Q45 141 57.5 167.0Q70 193 106.0 216.5Q142 240 211 260Q240 268 268.0 276.5Q296 285 324 293V321Q324 394 302.0 418.0Q280 442 230 442Q219 442 205.5 441.0Q192 440 176 436L157 371Q143 323 105 323Q63 323 58 364Q72 421 124.5 454.5Q177 488 253 488Q332 488 370.0 448.5Q408 409 408 314V101Q408 69 418.0 55.5Q428 42 444 42Q457 42 466.0 48.0Q475 54 483 64L503 42Q485 13 463.5 1.5Q442 -10 416 -10ZM134 126Q134 87 157.0 70.0Q180 53 214 53Q229 53 242.5 57.0Q256 61 275.0 72.5Q294 84 324 106V256Q301 249 278.5 241.5Q256 234 233 226Q188 212 167.0 194.5Q146 177 140.0 159.5Q134 142 134 126Z" transform="translate(902.000 0)"/><path d="M25 0V36L105 50Q106 90 106.5 130.5Q107 171 107 210V649L25 659V695L181 740L195 732L191 589V240L284 337L362 418L288 436V475H521V436L427 422L317 309L481 48L547 36V0H411L257 248L191 180Q191 148 191.5 115.0Q192 82 193 50L273 36V0Z" transform="translate(1411.000 0)"/><path d="M274 442Q243 442 213.5 426.0Q184 410 162.5 375.0Q141 340 135 282H313Q354 282 366.0 297.0Q378 312 378 334Q378 386 350.0 414.0Q322 442 274 442ZM277 -13Q171 -13 108.0 52.0Q45 117 45 232Q45 309 76.0 366.5Q107 424 159.5 456.0Q212 488 274 488Q327 488 369.0 465.0Q411 442 436.0 399.5Q461 357 461 296Q461 279 459.0 264.5Q457 250 454 240H133Q135 148 179.0 100.0Q223 52 300 52Q347 52 382.5 67.5Q418 83 448 117L469 100Q438 48 396.0 17.5Q354 -13 277 -13Z" transform="translate(1958.000 0)"/><path d="" transform="translate(2468.000 0)"/><path d="M35 0V36L109 50Q110 88 110.5 132.0Q111 176 111 210V257Q111 298 110.5 325.5Q110 353 108 383L29 392V427L184 488L199 478L196 342V210Q196 177 196.5 132.5Q197 88 198 50L267 36V0ZM148 589Q120 589 100.5 607.0Q81 625 81 653Q81 681 100.5 699.0Q120 717 148 717Q176 717 195.5 699.0Q215 681 215 653Q215 625 195.5 607.0Q176 589 148 589Z" transform="translate(2701.000 0)"/><path d="M205 -13Q153 -13 122.0 15.0Q91 43 91 101Q91 120 91.5 138.5Q92 157 92 186V422H9V466L98 477L124 611H184L178 475H313V422H177V112Q177 74 192.0 56.5Q207 39 232 39Q249 39 264.5 46.0Q280 53 299 66L323 40Q282 -13 205 -13Z" transform="translate(2999.000 0)"/><path d="" transform="translate(3324.000 0)"/><path d="M317 439V475H512V439L458 428L297 3Q247 -130 200.5 -190.0Q154 -250 92 -250Q55 -250 27.5 -231.0Q0 -212 0 -183Q5 -161 24.5 -150.0Q44 -139 67 -139Q87 -139 104.0 -147.5Q121 -156 141 -177L146 -182Q178 -155 200.0 -116.5Q222 -78 236 -38L240 -26L59 431L4 439V475H244V438L156 428L281 88L345 264L404 427Z" transform="translate(3557.000 0)"/><path d="M274 -13Q216 -13 163.5 14.5Q111 42 78.0 97.5Q45 153 45 235Q45 318 78.0 374.5Q111 431 163.5 459.5Q216 488 274 488Q332 488 384.5 459.5Q437 431 470.5 374.5Q504 318 504 235Q504 153 470.5 97.5Q437 42 384.5 14.5Q332 -13 274 -13ZM274 32Q339 32 374.0 83.5Q409 135 409 235Q409 336 374.0 389.0Q339 442 274 442Q209 442 174.5 389.0Q140 336 140 235Q140 135 174.5 83.5Q209 32 274 32Z" transform="translate(4069.000 0)"/><path d="M223 -13Q162 -13 127.0 27.5Q92 68 93 167L96 416L25 431V467L172 481L182 471L177 342V176Q177 111 197.0 84.5Q217 58 257 58Q327 58 397 123L400 417L329 431V467L474 481L484 471L481 342V50L549 36V0L410 -8L400 81Q360 32 314.5 9.5Q269 -13 223 -13Z" transform="translate(4618.000 0)"/><path d="M42 0V36L114 49Q115 87 115.5 131.5Q116 176 116 210V258Q116 299 115.5 326.0Q115 353 113 383L34 392V427L174 488L189 478L200 360Q225 420 264.5 454.0Q304 488 344 488Q367 488 387.0 478.0Q407 468 416 451Q416 378 357 378Q340 378 325.0 384.5Q310 391 296 403L284 414Q254 392 234.0 360.0Q214 328 201 285V210Q201 177 201.5 133.0Q202 89 203 51L285 36V0Z" transform="translate(5201.000 0)"/><path d="M200 -13Q158 -13 123.0 -3.5Q88 6 51 25L47 135H102L121 49Q139 40 159.5 36.0Q180 32 202 32Q259 32 286.5 53.0Q314 74 314 108Q314 140 291.0 159.5Q268 179 221 195L175 212Q120 232 87.0 264.0Q54 296 54 347Q54 384 74.0 416.0Q94 448 133.0 468.0Q172 488 228 488Q269 488 302.5 477.5Q336 467 368 447L364 345H312L296 425Q262 442 227 442Q181 442 157.5 423.5Q134 405 134 374Q134 341 154.5 324.0Q175 307 226 288L257 277Q332 249 363.5 213.0Q395 177 395 130Q395 92 373.0 59.5Q351 27 308.0 7.0Q265 -13 200 -13Z" transform="translate(5624.000 0)"/><path d="M150 -13Q120 -13 99.5 8.0Q79 29 79 58Q79 88 99.5 109.0Q120 130 150 130Q180 130 200.5 109.0Q221 88 221 58Q221 29 200.5 8.0Q180 -13 150 -13Z" transform="translate(6058.000 0)"/></g><g fill="#242827" transform="translate(92 442) scale(0.015 -0.015)"><path d="M354 -15Q296 -15 241.0 7.5Q186 30 142.0 74.0Q98 118 72.5 183.5Q47 249 47 335Q47 417 73.0 482.0Q99 547 142.5 592.0Q186 637 241.0 661.0Q296 685 354 685Q412 685 466.5 662.5Q521 640 564.5 595.5Q608 551 634.0 486.0Q660 421 660 335Q660 253 634.5 188.0Q609 123 565.5 77.5Q522 32 467.0 8.5Q412 -15 354 -15ZM354 35Q406 35 443.5 60.5Q481 86 504.5 128.5Q528 171 539.0 224.5Q550 278 550 335Q550 391 539.0 444.5Q528 498 504.5 541.0Q481 584 443.5 609.5Q406 635 354 635Q302 635 264.5 609.5Q227 584 203.0 541.0Q179 498 167.5 444.5Q156 391 156 335Q156 278 167.5 224.5Q179 171 203.0 128.5Q227 86 264.5 60.5Q302 35 354 35Z" transform="translate(0.000 0)"/><path d="M295 624H235Q234 559 233.5 492.5Q233 426 233 359V311H299Q390 311 429.0 355.5Q468 400 468 470Q468 543 426.5 583.5Q385 624 295 624ZM44 629V670H313Q440 670 503.5 614.0Q567 558 567 470Q567 414 539.0 367.0Q511 320 449.5 292.0Q388 264 285 264H233Q233 210 233.5 158.0Q234 106 235 52L328 41V0H44V41L136 52Q138 115 138.0 180.0Q138 245 138 310V359Q138 424 138.0 489.0Q138 554 136 618Z" transform="translate(840.333 0)"/><path d="M20 492 28 670H576L584 492H526L504 620H351Q350 556 349.5 490.5Q349 425 349 359V310Q349 246 349.5 181.5Q350 117 351 52L453 41V0H151V41L253 52Q255 116 255.0 180.5Q255 245 255 310V359Q255 424 255.0 489.5Q255 555 253 620H100L78 492Z" transform="translate(1562.667 0)"/><path d="M44 629V670H327V629L235 618Q234 554 233.5 489.0Q233 424 233 359V310Q233 246 233.5 181.5Q234 117 235 52L327 41V0H44V41L136 52Q138 115 138.0 180.0Q138 245 138 310V359Q138 424 138.0 489.0Q138 554 136 618Z" transform="translate(2300.000 0)"/><path d="M354 -15Q296 -15 241.0 7.5Q186 30 142.0 74.0Q98 118 72.5 183.5Q47 249 47 335Q47 417 73.0 482.0Q99 547 142.5 592.0Q186 637 241.0 661.0Q296 685 354 685Q412 685 466.5 662.5Q521 640 564.5 595.5Q608 551 634.0 486.0Q660 421 660 335Q660 253 634.5 188.0Q609 123 565.5 77.5Q522 32 467.0 8.5Q412 -15 354 -15ZM354 35Q406 35 443.5 60.5Q481 86 504.5 128.5Q528 171 539.0 224.5Q550 278 550 335Q550 391 539.0 444.5Q528 498 504.5 541.0Q481 584 443.5 609.5Q406 635 354 635Q302 635 264.5 609.5Q227 584 203.0 541.0Q179 498 167.5 444.5Q156 391 156 335Q156 278 167.5 224.5Q179 171 203.0 128.5Q227 86 264.5 60.5Q302 35 354 35Z" transform="translate(2804.333 0)"/><path d="M454 629V670H695V629L610 616V-7H575L175 558V55L281 41V0H39V41L124 53V622L44 629V670H209L559 172V616Z" transform="translate(3644.667 0)"/><path d="M5 0V41L89 54L302 675H365L578 50L653 41V0H381V41L479 53L424 217H192L137 54L234 41V0ZM208 264H409L309 561Z" transform="translate(4513.000 0)"/><path d="M44 629V670H327V629L235 618Q234 554 233.5 489.0Q233 424 233 359V290Q233 237 233.5 175.5Q234 114 235 50H462L491 188H552L542 0H44V41L136 52Q138 117 138.0 181.0Q138 245 138 309V359Q138 424 138.0 489.0Q138 554 136 618Z" transform="translate(5310.333 0)"/><path d="" transform="translate(6039.667 0)"/><path d="M295 624H235Q234 559 233.5 492.5Q233 426 233 359V311H299Q390 311 429.0 355.5Q468 400 468 470Q468 543 426.5 583.5Q385 624 295 624ZM44 629V670H313Q440 670 503.5 614.0Q567 558 567 470Q567 414 539.0 367.0Q511 320 449.5 292.0Q388 264 285 264H233Q233 210 233.5 158.0Q234 106 235 52L328 41V0H44V41L136 52Q138 115 138.0 180.0Q138 245 138 310V359Q138 424 138.0 489.0Q138 554 136 618Z" transform="translate(6406.000 0)"/><path d="M44 629V670H327V629L235 618Q234 554 233.5 489.0Q233 424 233 359V290Q233 237 233.5 175.5Q234 114 235 50H462L491 188H552L542 0H44V41L136 52Q138 117 138.0 181.0Q138 245 138 309V359Q138 424 138.0 489.0Q138 554 136 618Z" transform="translate(7128.333 0)"/><path d="M453 629V670H693V629L606 618V274Q606 169 575.0 105.5Q544 42 490.0 13.5Q436 -15 367 -15Q295 -15 240.0 13.0Q185 41 154.5 100.0Q124 159 124 252V360Q124 425 124.0 490.0Q124 555 122 619L39 629V670H322V629L220 617Q219 554 218.5 489.5Q218 425 218 360V281Q218 196 238.5 146.5Q259 97 296.0 76.5Q333 56 384 56Q469 56 512.0 110.5Q555 165 555 298V616Z" transform="translate(7857.667 0)"/><path d="M384 -15Q284 -15 208.0 30.5Q132 76 89.5 155.0Q47 234 47 335Q47 436 90.0 515.0Q133 594 209.5 639.5Q286 685 388 685Q450 685 498.5 673.5Q547 662 589 638L593 492H531L511 606Q459 635 397 635Q328 635 273.5 600.0Q219 565 187.5 498.0Q156 431 156 335Q156 192 222.0 114.0Q288 36 403 36Q460 36 510 56V88Q510 133 509.5 178.5Q509 224 508 269L404 278V318H667V278L606 272Q605 227 604.5 181.0Q604 135 604 88V44Q552 17 499.0 1.0Q446 -15 384 -15Z" transform="translate(8718.000 0)"/><path d="M44 629V670H327V629L235 618Q234 554 233.5 489.0Q233 424 233 359V310Q233 246 233.5 181.5Q234 117 235 52L327 41V0H44V41L136 52Q138 115 138.0 180.0Q138 245 138 310V359Q138 424 138.0 489.0Q138 554 136 618Z" transform="translate(9533.333 0)"/><path d="M454 629V670H695V629L610 616V-7H575L175 558V55L281 41V0H39V41L124 53V622L44 629V670H209L559 172V616Z" transform="translate(10037.667 0)"/><path d="" transform="translate(10906.000 0)"/><path d="M44 629V670H542L549 493H492L470 620H235Q234 556 233.5 491.5Q233 427 233 365H388L402 460H448V214H402L388 318H233Q233 244 233.5 179.0Q234 114 235 52L328 41V0H44V41L136 52Q138 115 138.0 180.0Q138 245 138 310V359Q138 424 138.0 489.0Q138 554 136 618Z" transform="translate(11272.333 0)"/><path d="M354 -15Q296 -15 241.0 7.5Q186 30 142.0 74.0Q98 118 72.5 183.5Q47 249 47 335Q47 417 73.0 482.0Q99 547 142.5 592.0Q186 637 241.0 661.0Q296 685 354 685Q412 685 466.5 662.5Q521 640 564.5 595.5Q608 551 634.0 486.0Q660 421 660 335Q660 253 634.5 188.0Q609 123 565.5 77.5Q522 32 467.0 8.5Q412 -15 354 -15ZM354 35Q406 35 443.5 60.5Q481 86 504.5 128.5Q528 171 539.0 224.5Q550 278 550 335Q550 391 539.0 444.5Q528 498 504.5 541.0Q481 584 443.5 609.5Q406 635 354 635Q302 635 264.5 609.5Q227 584 203.0 541.0Q179 498 167.5 444.5Q156 391 156 335Q156 278 167.5 224.5Q179 171 203.0 128.5Q227 86 264.5 60.5Q302 35 354 35Z" transform="translate(11984.667 0)"/><path d="M321 624H235Q234 558 233.5 492.0Q233 426 233 355H310Q391 355 429.5 394.5Q468 434 468 494Q468 557 433.0 590.5Q398 624 321 624ZM44 629V670H324Q439 670 503.0 624.0Q567 578 567 495Q567 437 525.0 388.5Q483 340 398 325Q444 316 472.5 286.5Q501 257 517 198L560 50L637 41V0Q622 -4 603.5 -7.0Q585 -10 562 -10Q515 -10 491.5 4.0Q468 18 459 54L419 214Q410 255 393.0 275.5Q376 296 349.5 303.0Q323 310 282 310H233Q233 238 233.5 175.0Q234 112 235 52L327 41V0H44V41L136 52Q138 115 138.0 180.0Q138 245 138 310V359Q138 424 138.0 489.0Q138 554 136 618Z" transform="translate(12825.000 0)"/><path d="" transform="translate(13609.333 0)"/><path d="M354 -15Q296 -15 241.0 7.5Q186 30 142.0 74.0Q98 118 72.5 183.5Q47 249 47 335Q47 417 73.0 482.0Q99 547 142.5 592.0Q186 637 241.0 661.0Q296 685 354 685Q412 685 466.5 662.5Q521 640 564.5 595.5Q608 551 634.0 486.0Q660 421 660 335Q660 253 634.5 188.0Q609 123 565.5 77.5Q522 32 467.0 8.5Q412 -15 354 -15ZM354 35Q406 35 443.5 60.5Q481 86 504.5 128.5Q528 171 539.0 224.5Q550 278 550 335Q550 391 539.0 444.5Q528 498 504.5 541.0Q481 584 443.5 609.5Q406 635 354 635Q302 635 264.5 609.5Q227 584 203.0 541.0Q179 498 167.5 444.5Q156 391 156 335Q156 278 167.5 224.5Q179 171 203.0 128.5Q227 86 264.5 60.5Q302 35 354 35Z" transform="translate(13975.667 0)"/><path d="M288 323H233Q233 244 233.5 177.5Q234 111 235 47H296Q392 47 439.0 82.0Q486 117 486 183Q486 253 439.0 288.0Q392 323 288 323ZM304 624H235Q234 559 233.5 493.5Q233 428 233 369H285Q376 369 417.0 400.5Q458 432 458 500Q458 568 419.5 596.0Q381 624 304 624ZM44 629V670H334Q438 670 495.0 624.0Q552 578 552 507Q552 454 516.0 409.5Q480 365 397 348Q497 334 541.5 289.0Q586 244 586 183Q586 138 559.5 96.0Q533 54 474.0 27.0Q415 0 319 0H44V41L136 52Q138 115 138.0 180.0Q138 245 138 310V359Q138 424 138.0 489.0Q138 554 136 618Z" transform="translate(14816.000 0)"/><path d="M235 -15Q179 -15 127.0 0.5Q75 16 40 38L46 178H108L128 60Q151 47 175.5 41.0Q200 35 232 35Q303 35 345.0 66.5Q387 98 387 156Q387 204 357.5 230.5Q328 257 264 282L225 298Q148 328 100.5 376.0Q53 424 53 500Q53 558 82.5 599.0Q112 640 163.0 662.5Q214 685 278 685Q328 685 369.0 671.0Q410 657 442 633L436 502H375L354 615Q317 635 272 635Q215 635 176.0 606.5Q137 578 137 522Q137 476 166.5 445.5Q196 415 250 394L290 379Q388 341 430.0 293.5Q472 246 472 175Q472 116 441.5 73.5Q411 31 358.0 8.0Q305 -15 235 -15Z" transform="translate(15578.333 0)"/><path d="M44 629V670H327V629L235 618Q234 554 233.5 489.0Q233 424 233 359V310Q233 246 233.5 181.5Q234 117 235 52L327 41V0H44V41L136 52Q138 115 138.0 180.0Q138 245 138 310V359Q138 424 138.0 489.0Q138 554 136 618Z" transform="translate(16223.667 0)"/><path d="M233 322Q233 249 233.5 181.0Q234 113 235 47H314Q430 47 492.0 122.5Q554 198 554 334Q554 475 493.0 549.5Q432 624 323 624H235Q234 559 233.5 492.5Q233 426 233 359ZM44 629V670H339Q435 670 508.0 631.0Q581 592 622.0 517.5Q663 443 663 334Q663 226 618.0 151.5Q573 77 495.5 38.5Q418 0 320 0H44V41L136 52Q138 116 138.0 182.5Q138 249 138 322V359Q138 424 138.0 489.0Q138 554 136 618Z" transform="translate(16728.000 0)"/><path d="M44 629V670H327V629L235 618Q234 554 233.5 489.0Q233 424 233 359V310Q233 246 233.5 181.5Q234 117 235 52L327 41V0H44V41L136 52Q138 115 138.0 180.0Q138 245 138 310V359Q138 424 138.0 489.0Q138 554 136 618Z" transform="translate(17571.333 0)"/><path d="M5 0V41L89 54L302 675H365L578 50L653 41V0H381V41L479 53L424 217H192L137 54L234 41V0ZM208 264H409L309 561Z" transform="translate(18075.667 0)"/><path d="M454 629V670H695V629L610 616V-7H575L175 558V55L281 41V0H39V41L124 53V622L44 629V670H209L559 172V616Z" transform="translate(18873.000 0)"/></g></svg>
